<?xml version="1.0" encoding="utf-8"?>
<!-- Generator: Adobe Illustrator 24.2.3, SVG Export Plug-In . SVG Version: 6.00 Build 0)  -->
<svg version="1.1" id="Layer_1" xmlns="http://www.w3.org/2000/svg" xmlns:xlink="http://www.w3.org/1999/xlink" x="0px" y="0px"
	 viewBox="0 0 127.56 127.56" style="enable-background:new 0 0 127.56 127.56;" xml:space="preserve">
<style type="text/css">
	.st0{fill:#FFFFFF;}
</style>
<rect width="127.56" height="127.56"/>
<path class="st0" d="M116.34,93.43c-9.1,0-17.82-0.05-26.53,0.04c-1.52,0.02-1.97-0.85-2.55-1.86
	c-7.32-12.8-14.64-25.59-21.96-38.38c-1.69-2.95-3.33-5.92-5.1-8.82c-0.67-1.09-0.57-1.61,0.56-2.26
	c6.03-3.47,12.04-6.96,17.98-10.57c1.61-0.98,1.94,0.02,2.53,1.03c8.97,15.57,17.96,31.13,26.94,46.7
	C110.85,83.89,113.48,88.47,116.34,93.43z"/>
<path class="st0" d="M79.11,93.43c-6.61,0-13.35-0.5-19.97,0.15c-5.92,0.58-9.03-1.47-11.52-6.76c-3.3-7.02-7.56-13.59-11.43-20.34
	c-0.59-1.02-0.97-1.67,0.49-2.46c6.18-3.36,12.28-6.85,18.38-10.37c1-0.58,1.45-0.59,2.07,0.5c7.35,12.96,14.75,25.89,22.14,38.83
	C79.28,93.02,79.21,93.12,79.11,93.43z"/>
<path class="st0" d="M42.79,93.44c-6.8,0-13.16,0-19.52,0c-0.83,0-1.66,0-2.49,0c-6.29,0-6.26-0.02-9.2-5.67
	c-0.53-1.02-0.57-1.46,0.52-2.08c6.18-3.52,12.32-7.12,18.47-10.69c0.54-0.31,1-0.82,1.56,0.16C35.58,81.15,39.09,87.11,42.79,93.44
	z"/>
</svg>
