<?xml version="1.0" encoding="utf-8"?>
<!-- Generator: Adobe Illustrator 24.2.3, SVG Export Plug-In . SVG Version: 6.00 Build 0)  -->
<svg version="1.1" id="Layer_1" xmlns="http://www.w3.org/2000/svg" xmlns:xlink="http://www.w3.org/1999/xlink" x="0px" y="0px"
	 viewBox="0 0 127.56 127.56" style="enable-background:new 0 0 127.56 127.56;" xml:space="preserve">
<style type="text/css">
	.st0{fill:#F8F8F8;}
</style>
<rect width="127.56" height="127.56"/>
<g>
	<g>
		<path d="M127.05,64.17c0,19.97-0.04,39.94,0.05,59.9c0.01,2.58-0.01,3.77-3.4,3.75c-40.45-0.18-80.9-0.16-121.35-0.02
			c-3,0.01-3.21-0.9-3.2-3.44c0.09-40.43,0.11-80.87-0.03-121.3c-0.01-3,0.9-3.21,3.44-3.2c40.45,0.09,80.9,0.11,121.35-0.03
			c3-0.01,3.22,0.9,3.2,3.44C127,23.57,127.05,43.87,127.05,64.17z"/>
		<path class="st0" d="M110.44,53.93c-9.27,4.03-18.53,8.08-27.8,12.1c-12.97,5.61-25.95,11.22-38.95,16.79
			c-4.94,2.12-10.05,3.54-15.52,2.99c-6.35-0.64-10.25-5.09-10.01-11.42c0.24-6.44,5.45-15.95,10.86-19.52
			c0.16,3.12-1.78,5.99-0.04,9.08c3.3,5.83,7.22,7.96,14.67,6.09c15.81-3.95,31.52-8.32,47.27-12.51
			c6.37-1.69,12.75-3.37,19.13-5.05C110.19,52.96,110.31,53.44,110.44,53.93z"/>
	</g>
</g>
</svg>
