<?xml version="1.0" encoding="utf-8"?>
<!-- Generator: Adobe Illustrator 24.2.3, SVG Export Plug-In . SVG Version: 6.00 Build 0)  -->
<svg version="1.1" id="Layer_1" xmlns="http://www.w3.org/2000/svg" xmlns:xlink="http://www.w3.org/1999/xlink" x="0px" y="0px"
	 viewBox="0 0 400 400" style="enable-background:new 0 0 400 400;" xml:space="preserve">
<style type="text/css">
	.st0{fill:#020203;}
</style>
<g>
	<g>
		<path class="st0" d="M121.37,284.88h-3.65l-0.74-4.68h-4.61l-0.74,4.68h-3.64v-0.06l4.77-24.61h3.87L121.37,284.88z
			 M116.45,277.04l-1.79-11.12l-1.81,11.12H116.45z"/>
		<path class="st0" d="M134.14,263.5h-4.06v21.38h-3.67V263.5h-4.06v-3.26h11.79V263.5z"/>
		<path class="st0" d="M148.4,284.88h-3.72v-11.05h-4.99v11.05h-3.68v-24.64h3.68v10.16h4.99v-10.16h3.72V284.88z"/>
		<path class="st0" d="M161.01,284.88h-9.68v-24.64h3.68v21.35h6V284.88z"/>
		<path class="st0" d="M173.42,284.88H163.2v-24.64h10.12v3.26h-6.44v7.19h5.54v3.2h-5.54v7.73h6.53V284.88z"/>
		<path class="st0" d="M186.64,263.5h-4.06v21.38h-3.67V263.5h-4.06v-3.26h11.79V263.5z"/>
		<path class="st0" d="M192.26,284.88h-3.68v-24.64h3.68V284.88z"/>
		<path class="st0" d="M207.41,282.63c0,1.5-0.75,2.25-2.25,2.25h-7.68c-1.46,0-2.19-0.75-2.19-2.25v-20.12
			c0-1.51,0.73-2.27,2.19-2.27h7.68c1.5,0,2.25,0.76,2.25,2.27v5.76h-3.67v-4.86h-4.77v18.31h4.77v-5.18h3.67V282.63z"/>
		<path class="st0" d="M229.13,282.63c0,1.5-0.75,2.25-2.25,2.25h-7.75c-1.46,0-2.19-0.75-2.19-2.25v-20.12
			c0-1.51,0.75-2.27,2.24-2.27h7.7c1.5,0,2.25,0.76,2.25,2.27v5.26h-3.7v-4.36h-4.8v18.31h4.8v-6.9h-2.74v-3.13h6.44V282.63z"/>
		<path class="st0" d="M242.3,284.88h-10.22v-24.64h10.12v3.26h-6.44v7.19h5.54v3.2h-5.54v7.73h6.53V284.88z"/>
		<path class="st0" d="M257.3,284.88h-3.65l-0.74-4.68h-4.61l-0.74,4.68h-3.64v-0.06l4.77-24.61h3.87L257.3,284.88z M252.39,277.04
			l-1.79-11.12l-1.81,11.12H252.39z"/>
		<path class="st0" d="M271.97,284.88h-3.84l-4.06-11.45v-2.22h3.62v-7.81h-4.64v21.47h-3.68v-24.64h9.78
			c1.48,0,2.22,0.76,2.22,2.27v8.96c0,1.04-0.35,1.71-1.05,2.02c-0.38,0.16-1.18,0.24-2.39,0.24L271.97,284.88z"/>
		<path class="st0" d="M286.03,282.63c0,1.5-0.75,2.25-2.24,2.25h-7.42c-1.48,0-2.22-0.75-2.22-2.25v-5.87h3.68v5.02h4.5v-4.83
			l-7.38-6.99c-0.54-0.51-0.8-1.17-0.8-1.97v-5.48c0-1.51,0.74-2.27,2.22-2.27h7.42c1.49,0,2.24,0.75,2.24,2.24v5.51h-3.68v-4.64
			h-4.5v4.46l7.38,6.96c0.54,0.5,0.8,1.17,0.8,2V282.63z"/>
	</g>
	<g>
		<g>
			<g>
				<path class="st0" d="M119.6,139.06l-18.42,96.2h-14.3l-18.36-96.2h14.43l10.74,65.88c0.08,1.88,0.2,4.63,0.37,8.23
					c-0.04-1.88,0.08-4.62,0.37-8.23l10.81-65.88H119.6z"/>
				<path class="st0" d="M176.15,226.36c0,5.85-2.91,8.78-8.72,8.78h-31.19c-5.69,0-8.53-2.93-8.53-8.78V147.9
					c0-5.89,2.84-8.84,8.53-8.84h31.19c5.81,0,8.72,2.95,8.72,8.84V226.36z M161.78,222.8v-71.4h-19.71v71.4H161.78z"/>
				<path class="st0" d="M225.45,235.14h-37.76v-96.08h14.37v83.25h23.39V235.14z"/>
				<path class="st0" d="M275.73,151.77h-15.84v83.37h-14.3v-83.37h-15.84v-12.71h45.98V151.77z"/>
				<path class="st0" d="M331.72,235.14h-14.24l-2.89-18.23H296.6l-2.89,18.23h-14.18v-0.25l18.6-95.96h15.1L331.72,235.14z
					 M312.57,204.57l-7-43.34l-7.06,43.34H312.57z"/>
			</g>
			<rect x="18.87" y="108.66" class="st0" width="14.25" height="173.53"/>
			
				<rect x="192.87" y="-65.34" transform="matrix(-1.836970e-16 1 -1 -1.836970e-16 315.7893 -84.2107)" class="st0" width="14.25" height="362.26"/>
			<rect x="366.88" y="108.66" class="st0" width="14.25" height="173.53"/>
		</g>
		
			<rect x="50.49" y="237.81" transform="matrix(-1.836970e-16 1 -1 -1.836970e-16 332.6893 217.4556)" class="st0" width="14.25" height="74.52"/>
		
			<rect x="337.92" y="240.47" transform="matrix(-1.836970e-16 1 -1 -1.836970e-16 620.1144 -69.9705)" class="st0" width="14.25" height="69.2"/>
	</g>
</g>
</svg>
